HIERARCHY
ROOT Hips
{
	OFFSET 0.000000 8.830580 0.000000
	CHANNELS 6 Xposition Yposition Zposition Zrotation Yrotation Xrotation 
	JOINT Spine
	{
		OFFSET 0.000000 0.010000 0.000000
		CHANNELS 3 Zrotation Yrotation Xrotation
		JOINT Spine1
		{
			OFFSET 0.000000 2.459130 0.000000
			CHANNELS 3 Zrotation Yrotation Xrotation
			JOINT Neck
			{
				OFFSET 0.000000 2.484630 0.000000
				CHANNELS 3 Zrotation Yrotation Xrotation
				JOINT Head_virtual
				{
					OFFSET 0.000000 0.000000 0.000000
					CHANNELS 3 Zrotation Yrotation Xrotation
					JOINT Head
					{
						OFFSET 0.000000 0.927525 0.000000
						CHANNELS 3 Zrotation Yrotation Xrotation
						End Site
						{
							OFFSET 0.000000 0.000000 0.000000
						}
					}
				}
				JOINT LeftUpArm_virtual
				{
					OFFSET 0.000000 0.000000 0.000000
					CHANNELS 3 Zrotation Yrotation Xrotation
					JOINT LeftUpArm
					{
						OFFSET 1.248820 0.000000 0.000000
						CHANNELS 3 Zrotation Yrotation Xrotation
						JOINT LeftForeArm
						{
							OFFSET 2.597580 0.000000 0.000000
							CHANNELS 3 Zrotation Yrotation Xrotation
							JOINT LeftHand
							{
								OFFSET 2.455420 0.000000 0.000000
								CHANNELS 3 Zrotation Yrotation Xrotation
								End Site
								{
									OFFSET 0.000000 0.000000 0.000000
								}
							}
						}
					}
				}
				JOINT RightUpArm_virtual
				{
					OFFSET -0.000000 -0.000000 -0.000000
					CHANNELS 3 Zrotation Yrotation Xrotation
					JOINT RightUpArm
					{
						OFFSET -1.248820 -0.000000 -0.000000
						CHANNELS 3 Zrotation Yrotation Xrotation
						JOINT RightForeArm
						{
							OFFSET -2.597580 -0.000000 -0.000000
							CHANNELS 3 Zrotation Yrotation Xrotation
							JOINT RightHand
							{
								OFFSET -2.455420 -0.000000 -0.000000
								CHANNELS 3 Zrotation Yrotation Xrotation
								End Site
								{
									OFFSET 0.000000 0.000000 0.000000
								}
							}
						}
					}
				}
			}
		}
	}
	JOINT LeftUpLeg
	{
		OFFSET 1.271939 0.000000 0.000000
		CHANNELS 3 Zrotation Yrotation Xrotation
		JOINT LeftLowLeg
		{
			OFFSET 0.000000 -4.342910 0.000000
			CHANNELS 3 Zrotation Yrotation Xrotation
			JOINT LeftFoot
			{
				OFFSET 0.000000 -4.487670 0.000000
				CHANNELS 3 Zrotation Yrotation Xrotation
				JOINT LeftToeBase
				{
					OFFSET 0.000000 0.000000 1.515070
					CHANNELS 3 Zrotation Yrotation Xrotation
					End Site
					{
						OFFSET 0.000000 0.000000 0.000000
					}
				}
			}
		}
	}
	JOINT RightUpLeg
	{
		OFFSET -1.271939 0.000000 0.000000
		CHANNELS 3 Zrotation Yrotation Xrotation
		JOINT RightLowLeg
		{
			OFFSET 0.000000 -4.342910 0.000000
			CHANNELS 3 Zrotation Yrotation Xrotation
			JOINT RightFoot
			{
				OFFSET 0.000000 -4.487670 0.000000
				CHANNELS 3 Zrotation Yrotation Xrotation
				JOINT RightToeBase
				{
					OFFSET 0.000000 0.000000 1.515070
					CHANNELS 3 Zrotation Yrotation Xrotation
					End Site
					{
						OFFSET 0.000000 0.000000 0.000000
					}
				}
			}
		}
	}
}
MOTION
Frames: 13
Frame Time: 0.041667
-18.786702 9.227098 40.706847 -175.687992 -1.845292 -175.964832 2.620629 -2.259067 -7.397902 -1.319620 -2.422965 5.211262 0.000000 0.000000 0.000000 2.036750 3.489647 -3.772065 4.386819 4.959740 -51.153520 -1.726570 12.137700 -5.355530 -11.756300 -1.684700 -29.545500 0.000000 -19.969101 0.000000 31.152300 6.530170 19.721399 9.667150 -11.579800 0.212702 9.132420 -0.910791 -35.177700 0.000000 19.467199 0.000000 -16.061800 -2.003460 22.378901 4.481349 -2.424181 -5.040242 0.000000 0.000000 8.506400 9.028953 -0.037339 7.682142 0.000000 0.000000 -36.204901 2.204938 5.149406 -2.579367 0.000000 0.000000 8.081180 8.237277 -7.796648 8.986703 0.000000 0.000000 -27.645900 
-18.787012 9.227257 40.705726 -175.686291 -1.840319 -175.965001 2.634013 -2.272780 -7.373233 -1.333135 -2.440016 5.180070 0.000000 0.000000 0.000000 2.008325 3.520636 -3.724790 4.410599 4.960882 -51.217040 -1.731930 12.176500 -5.357030 -11.762000 -1.716660 -29.531401 0.000000 -19.957001 0.000000 31.106400 6.549940 19.760500 9.680360 -11.570700 0.258908 9.120010 -0.890471 -35.200901 0.000000 19.438499 0.000000 -16.051201 -1.991210 22.411400 4.481422 -2.435132 -5.034118 0.000000 0.000000 8.510350 9.019181 -0.026898 7.683171 0.000000 0.000000 -36.224400 2.204986 5.160392 -2.575144 0.000000 0.000000 8.084180 8.246579 -7.799546 8.990260 0.000000 0.000000 -27.656700 
-18.787406 9.227383 40.704702 -175.690045 -1.822372 -175.959730 2.638962 -2.272015 -7.371677 -1.339732 -2.440417 5.174256 0.000000 0.000000 0.000000 1.994570 3.535576 -3.698633 4.422804 4.958237 -51.225943 -1.734180 12.165200 -5.342880 -11.778200 -1.712510 -29.566999 0.000000 -19.954500 0.000000 31.055700 6.529200 19.753901 9.681400 -11.568600 0.261529 9.125430 -0.886962 -35.236900 0.000000 19.417700 0.000000 -16.045601 -2.006490 22.425900 4.474081 -2.436748 -5.022823 0.000000 0.000000 8.498160 9.024975 -0.007888 7.689980 0.000000 0.000000 -36.214600 2.197919 5.197099 -2.571870 0.000000 0.000000 8.076560 8.244605 -7.816501 8.990819 0.000000 0.000000 -27.663400 
-18.787546 9.227347 40.703455 -175.695422 -1.814518 -175.948706 2.641569 -2.276513 -7.382219 -1.351005 -2.445477 5.174155 0.000000 0.000000 0.000000 1.996638 3.543523 -3.680079 4.411183 4.969752 -51.221835 -1.731560 12.166000 -5.324840 -11.777200 -1.736340 -29.542900 0.000000 -19.926100 0.000000 31.067600 6.535760 19.825899 9.677840 -11.570100 0.225141 9.140260 -0.893799 -35.211201 0.000000 19.423599 0.000000 -15.996700 -2.034580 22.425600 4.467174 -2.429294 -5.012947 0.000000 0.000000 8.475390 9.032779 -0.005417 7.692250 0.000000 0.000000 -36.192400 2.190558 5.142528 -2.562993 0.000000 0.000000 8.048770 8.232359 -7.766624 9.001732 0.000000 0.000000 -27.646700 
-18.787764 9.227372 40.702086 -175.696181 -1.806961 -175.931301 2.648385 -2.275639 -7.392102 -1.356821 -2.446197 5.160455 0.000000 0.000000 0.000000 1.997909 3.549303 -3.665742 4.424081 4.971366 -51.211411 -1.736370 12.162600 -5.330720 -11.766400 -1.761570 -29.460600 0.000000 -19.896400 0.000000 31.061600 6.564290 19.712601 9.686000 -11.575900 0.229502 9.125260 -0.913816 -35.169701 0.000000 19.424700 0.000000 -15.950600 -2.042700 22.395500 4.465097 -2.399302 -5.011795 0.000000 0.000000 8.458550 9.037679 -0.024356 7.693851 0.000000 0.000000 -36.204100 2.186623 5.156151 -2.569073 0.000000 0.000000 8.042440 8.238955 -7.765177 8.999641 0.000000 0.000000 -27.648600 
-18.788022 9.227294 40.700804 -175.691966 -1.797806 -175.903559 2.656874 -2.277246 -7.403520 -1.352558 -2.449978 5.122535 0.000000 0.000000 0.000000 1.969437 3.567167 -3.646644 4.489892 4.941476 -51.202733 -1.718750 12.164700 -5.313450 -11.809200 -1.773160 -29.453400 0.000000 -19.913300 0.000000 31.072399 6.531020 19.738400 9.666600 -11.579100 0.261919 9.135000 -0.915854 -35.170101 0.000000 19.412100 0.000000 -15.970300 -2.041090 22.392900 4.465923 -2.326417 -5.024312 0.000000 0.000000 8.447940 9.037192 -0.074870 7.681426 0.000000 0.000000 -36.222000 2.187267 5.183596 -2.585642 0.000000 0.000000 8.034050 8.264261 -7.777660 8.994349 0.000000 0.000000 -27.637500 
-18.788189 9.227303 40.699166 -175.695773 -1.795555 -175.871221 2.661165 -2.279767 -7.420406 -1.354452 -2.453947 5.079400 0.000000 0.000000 0.000000 1.973951 3.570095 -3.625600 4.483563 4.944194 -51.165372 -1.702840 12.146200 -5.296020 -11.864000 -1.755440 -29.515800 0.000000 -19.976500 0.000000 31.074499 6.534660 19.724400 9.655030 -11.573800 0.270404 9.138770 -0.946603 -35.161598 0.000000 19.408600 0.000000 -16.004700 -2.067780 22.367399 4.461450 -2.282884 -5.035547 0.000000 0.000000 8.427790 9.028990 -0.114845 7.676346 0.000000 0.000000 -36.211300 2.180000 5.189181 -2.595194 0.000000 0.000000 8.008990 8.247125 -7.782144 8.996818 0.000000 0.000000 -27.636400 
-18.788291 9.227504 40.697534 -175.702428 -1.795385 -175.831924 2.616506 -2.332806 -7.453002 -1.255852 -2.496571 5.066081 0.000000 0.000000 0.000000 1.904135 3.616348 -3.614092 4.415936 4.937111 -51.138064 -1.777600 12.203900 -5.306230 -11.863700 -1.746310 -29.556101 0.000000 -19.989799 0.000000 31.033701 6.514480 19.749500 9.605180 -11.526700 0.246629 9.131230 -0.937941 -35.177898 0.000000 19.416700 0.000000 -16.028700 -2.061440 22.393299 4.452930 -2.259424 -5.055821 0.000000 0.000000 8.413380 9.055845 -0.120433 7.682357 0.000000 0.000000 -36.199699 2.169904 5.166542 -2.612893 0.000000 0.000000 7.986410 8.249994 -7.759357 9.002857 0.000000 0.000000 -27.639400 
-18.789337 9.227636 40.700688 -175.718085 -1.861842 -175.680186 2.637446 -2.371275 -7.493914 -1.277397 -2.540990 4.931791 0.000000 0.000000 0.000000 1.895316 3.625228 -3.568845 4.422170 4.934566 -51.170800 -1.788990 12.195500 -5.309310 -11.849200 -1.748510 -29.534100 0.000000 -19.953100 0.000000 31.033100 6.508100 19.688700 9.629080 -11.509400 0.237224 9.103460 -0.974647 -35.210899 0.000000 19.438999 0.000000 -16.007700 -2.071970 22.426399 4.441112 -2.355282 -5.278082 0.000000 0.000000 8.476440 9.071254 -0.069233 7.712866 0.000000 0.000000 -36.241800 2.134287 5.060264 -2.785836 0.000000 0.000000 8.003720 8.275243 -7.704032 9.003817 0.000000 0.000000 -27.646000 
-18.789676 9.227736 40.698815 -175.720889 -1.850857 -175.637773 2.648874 -2.376504 -7.536840 -1.291298 -2.548512 4.924032 0.000000 0.000000 0.000000 1.910987 3.616097 -3.553957 4.411084 4.944497 -51.195387 -1.774840 12.187200 -5.306470 -11.853400 -1.749810 -29.561899 0.000000 -19.891899 0.000000 31.032200 6.519580 19.739700 9.633560 -11.525900 0.222279 9.089710 -0.959150 -35.197800 0.000000 19.433001 0.000000 -15.984900 -2.081860 22.408199 4.440788 -2.385206 -5.301296 0.000000 0.000000 8.471090 9.051603 -0.048348 7.712433 0.000000 0.000000 -36.214500 2.125767 5.103385 -2.822287 0.000000 0.000000 8.012700 8.294295 -7.724805 8.989647 0.000000 0.000000 -27.643800 
-18.788783 9.227524 40.696024 -175.716624 -1.845255 -175.666535 2.635501 -2.389754 -7.517886 -1.278384 -2.558936 4.923351 0.000000 0.000000 0.000000 1.934081 3.594154 -3.574031 4.409338 4.945517 -51.186613 -1.754080 12.187600 -5.295420 -11.866000 -1.746550 -29.589800 0.000000 -19.875401 0.000000 31.037300 6.542230 19.691900 9.626320 -11.524700 0.219564 9.086760 -0.979594 -35.195702 0.000000 19.437500 0.000000 -15.958600 -2.081790 22.391001 4.448847 -2.390803 -5.249232 0.000000 0.000000 8.462030 9.064728 -0.031896 7.700341 0.000000 0.000000 -36.222401 2.139965 5.116839 -2.776333 0.000000 0.000000 8.010430 8.284332 -7.736366 8.979791 0.000000 0.000000 -27.638600 
-18.788352 9.227359 40.693536 -175.721635 -1.839999 -175.670327 2.615084 -2.406521 -7.519330 -1.256003 -2.571179 4.923899 0.000000 0.000000 0.000000 1.924666 3.594880 -3.604230 4.430262 4.934398 -51.183805 -1.767760 12.183800 -5.306160 -11.839900 -1.721130 -29.609501 0.000000 -19.868999 0.000000 31.029900 6.535180 19.773300 9.602460 -11.519700 0.220662 9.086430 -0.995180 -35.175400 0.000000 19.419701 0.000000 -15.978700 -2.060080 22.382999 4.445677 -2.410147 -5.232361 0.000000 0.000000 8.469410 9.067808 -0.008685 7.685670 0.000000 0.000000 -36.211700 2.138167 5.123852 -2.754987 0.000000 0.000000 8.005380 8.296207 -7.729441 8.966066 0.000000 0.000000 -27.647300 
-18.788311 9.227232 40.691283 -175.720776 -1.830346 -175.658455 2.619512 -2.406548 -7.532322 -1.267015 -2.572293 4.914094 0.000000 0.000000 0.000000 1.951740 3.570882 -3.623277 4.436150 4.935239 -51.176324 -1.742050 12.179800 -5.295930 -11.839300 -1.720110 -29.609600 0.000000 -19.876900 0.000000 31.043900 6.527680 19.778700 9.594520 -11.537400 0.226177 9.072910 -0.992251 -35.173698 0.000000 19.391399 0.000000 -15.980900 -2.079680 22.453800 4.442772 -2.428378 -5.230641 0.000000 0.000000 8.472400 9.082636 0.042233 7.681642 0.000000 0.000000 -36.231001 2.139366 5.131628 -2.744710 0.000000 0.000000 7.984290 8.277961 -7.735220 8.968552 0.000000 0.000000 -27.660300 
